<svg width="90" height="31" viewBox="0 0 90 31" fill="none" xmlns="http://www.w3.org/2000/svg">
<path d="M18.984 30.0007H14.824L14.144 27.6407C13.1573 28.414 12.1173 29.0674 11.024 29.6007C9.93067 30.134 8.77067 30.4007 7.544 30.4007C5.89067 30.4007 4.53067 30.1074 3.464 29.5207C2.39733 28.9074 1.584 28.094 1.024 27.0807C0.464 26.0407 0.130667 24.8674 0.024 23.5607C-0.056 22.2274 0.064 20.8407 0.384 19.4007C0.677333 18.2007 1.064 17.0007 1.544 15.8007C2.05067 14.574 2.67733 13.4807 3.424 12.5207C4.19733 11.534 5.11733 10.734 6.184 10.1207C7.27733 9.50737 8.544 9.2007 9.984 9.2007C11.104 9.2007 12.0907 9.37404 12.944 9.7207C13.824 10.0407 14.7573 10.5474 15.744 11.2407L17.944 1.7207H25.584L18.984 30.0007ZM14.184 17.6407C14.184 16.094 13.424 15.3207 11.904 15.3207C10.8107 15.3207 9.97067 15.654 9.384 16.3207C8.79733 16.9607 8.304 18.0407 7.904 19.5607C7.77067 20.014 7.664 20.5207 7.584 21.0807C7.53067 21.6407 7.55733 22.174 7.664 22.6807C7.79733 23.1607 8.03733 23.574 8.384 23.9207C8.75733 24.2407 9.29067 24.4007 9.984 24.4007C10.784 24.4007 11.4507 24.1874 11.984 23.7607C12.5173 23.3074 12.944 22.7474 13.264 22.0807C13.584 21.3874 13.8107 20.654 13.944 19.8807C14.104 19.0807 14.184 18.334 14.184 17.6407Z" fill="#FEFDFD"/>
<path d="M47.7838 30.44H39.7038L40.0638 17.64L34.5038 30.44H26.7438L25.9438 10.04H34.0638L32.8638 22.44L38.1038 10.04H45.2638L44.9438 23.04L49.9038 10.04H58.2639L47.7838 30.44Z" fill="#FEFDFD"/>
<path d="M86.0688 30.44H78.4288L81.1888 18.64C81.4288 17.6267 81.4688 16.88 81.3088 16.4C81.1755 15.92 80.6822 15.68 79.8288 15.68C78.8155 15.68 78.0422 15.96 77.5088 16.52C76.9755 17.0533 76.5488 18.0267 76.2288 19.44L73.6688 30.44H65.9888L70.7888 10.04H74.9088L75.6288 12.36C76.7222 11.4267 77.7888 10.7467 78.8288 10.32C79.8688 9.86667 81.0155 9.64 82.2688 9.64C84.2155 9.64 85.6955 9.92 86.7088 10.48C87.7488 11.0133 88.4555 11.7333 88.8288 12.64C89.2288 13.52 89.3755 14.5333 89.2688 15.68C89.1622 16.8 88.9755 17.96 88.7088 19.16L86.0688 30.44Z" fill="#FEFDFD"/>
<path fill-rule="evenodd" clip-rule="evenodd" d="M54.9695 30.44H62.6495L67.3695 10.04H59.7295L54.9695 30.44Z" fill="#FEFDFD"/>
<path d="M69.4067 4.16C69.2467 4.88 69.02 5.46667 68.7267 5.92C68.4334 6.34667 68.0734 6.69333 67.6467 6.96C67.2467 7.2 66.7667 7.36 66.2067 7.44C65.6734 7.52 65.06 7.56 64.3667 7.56C63.7 7.56 63.06 7.50667 62.4467 7.4C61.86 7.29333 61.3534 7.09333 60.9267 6.8C60.5267 6.48 60.2334 6.05333 60.0467 5.52C59.8867 4.96 59.9134 4.24 60.1267 3.36C60.2867 2.61333 60.5134 2.02667 60.8067 1.6C61.1 1.14667 61.4467 0.8 61.8467 0.56C62.2734 0.32 62.7667 0.173333 63.3267 0.120001C63.8867 0.0400003 64.5134 0 65.2067 0C65.8734 0 66.5134 0.0533334 67.1267 0.16C67.74 0.240001 68.2467 0.426668 68.6467 0.72C69.0734 1.01333 69.3534 1.44 69.4867 2C69.6467 2.53333 69.62 3.25333 69.4067 4.16Z" fill="#AC54FF"/>
</svg>
